PathFileType	4	(X/Y/Z)	C:/Users/beibeiliu/ov580/test_trc/User2\sequence.31_training_dense_right.trc
DataRate	CameraRate	NumFrames	NumMarkers	Units	OrigDataRate	OrigDataStartFrame	OrigNumFrames
120	120	10	19	mm	120	262	349
Frame#	Time	ThumbCMC			ThumbMCP			ThumbIP			ThumbTip			IndexMCP			IndexPIP			IndexTip			MiddleMCP			MiddlePIP			MiddleTip			RingMCP			RingPIP			RingTip			PinkyMCP			PinkyPIP			PinkyTip			BackHand1			BackHand2			BackHand3	
		X0	Y0	Z0	X1	Y1	Z1	X2	Y2	Z2	X3	Y3	Z3	X4	Y4	Z4	X5	Y5	Z5	X6	Y6	Z6	X7	Y7	Z7	X8	Y8	Z8	X9	Y9	Z9	X10	Y10	Z10	X11	Y11	Z11	X12	Y12	Z12	X13	Y13	Z13	X14	Y14	Z14	X15	Y15	Z15	X16	Y16	Z16	X17	Y17	Z17	X18	Y18	Z18	
261	2.175	31.153	0.143628	51.5282	12.7589	-22.6153	27.3263	4.00214	-42.3454	-1.67982	3.58383	-57.2116	-21.3453	32.9201	6.57442	-34.1232	23.2301	-7.8539	-55.8124	22.2941	-31.7513	-76.3808	57.86	7.16536	-44.7125	57.2217	-10.8483	-72.3005	51.378	-33.2803	-98.0436	78.7074	-15.7856	-40.0808	74.4646	-43.5528	-48.967	59.136	-73.7675	-31.079	99.0615	-22.7314	-22.3581	87.4534	-55.8642	-28.9262	66.3762	-70.7685	-7.53143	93.0031	19.2466	14.9293	94.5711	24.5032	49.5981	59.1874	28.0981	36.0617	
262	2.18333	28.578	-3.53266	48.7715	11.6067	-26.0316	31.6654	-1.69429	-44.1976	2.60926	-1.92055	-59.1471	-19.53	30.4205	3.30526	-35.6024	26.1353	-11.9131	-56.822	21.6158	-33.5555	-77.1933	59.9448	3.26751	-43.9213	54.5434	-13.4854	-74.4419	50.9583	-34.6342	-96.0106	78.5853	-15.9137	-38.2609	70.2027	-45.8313	-51.4093	60.843	-77.5712	-40.1875	98.0546	-26.3315	-25.1478	86.9038	-54.4993	-34.9162	71.4981	-75.4859	-21.5711	95.1213	14.3644	18.3972	97.7985	21.8767	49.2676	59.8436	25.8649	33.6621	
263	2.19167	28.185	-12.4296	49.7008	10.2644	-32.1006	30.3705	-1.423	-48.9446	-1.24467	-6.4164	-62.7109	-20.2477	27.2783	-2.18721	-32.5885	18.2572	-17.3888	-55.5379	16.0626	-37.0833	-73.1354	56.8034	-2.54175	-40.1325	50.8279	-18.0925	-68.8904	43.1584	-39.4704	-95.2002	75.5729	-20.6014	-39.0904	72.3958	-48.2868	-54.8835	61.4743	-79.019	-50.9562	97.878	-29.1665	-25.146	86.5725	-56.8996	-39.684	70.6303	-80.1493	-36.1707	90.5452	7.89521	19.2193	95.5986	13.5681	51.6591	57.6363	15.3251	39.7658	
264	2.2	26.626	-16.9077	57.0198	11.1665	-35.9353	34.3178	-2.58782	-51.9456	0.678594	-4.65411	-65.3284	-17.1951	27.2197	-6.59362	-31.1604	17.4356	-20.8962	-51.5034	17.1167	-42.3889	-71.3747	54.9427	-6.62358	-39.9631	49.463	-22.1153	-69.0209	43.2609	-44.7037	-95.1439	77.2089	-23.697	-37.0929	67.1287	-48.9476	-54.968	59.034	-83.2798	-56.7257	94.5462	-31.3283	-24.5196	85.6227	-56.5813	-42.5786	69.223	-82.6983	-44.3046	92.9532	3.05719	20.867	93.9664	7.7526	50.7227	57.4962	11.2691	41.3895	
265	2.20833	30.8726	-18.9098	54.3176	10.2419	-37.5672	33.2495	-4.27994	-53.6076	2.75884	-9.00541	-67.2804	-18.6396	29.086	-8.22445	-27.9674	19.1951	-23.0672	-50.4919	14.5157	-46.469	-70.7508	53.0729	-8.68559	-40.6693	47.5112	-24.1914	-66.0193	44.7325	-46.4284	-91.4789	73.9635	-27.4531	-36.4058	69.4438	-53.1909	-55.7939	58.5823	-78.6344	-59.383	96.8309	-36.4223	-26.3608	87.152	-55.7196	-40.4199	75.2836	-83.52	-48.3706	91.4892	-0.631065	17.3717	96.3926	5.73015	55.5945	57.5201	10.0437	42.3323	
266	2.21667	27.4672	-22.0874	56.3972	11.8241	-41.0045	36.6691	-0.504522	-55.2712	7.681	-9.81617	-70.2753	-16.5369	29.9561	-9.46492	-23.1032	17.0025	-27.4692	-50.1817	15.2954	-48.9611	-67.8615	53.805	-11.8387	-38.4451	45.8611	-26.287	-66.277	38.951	-46.2265	-89.4538	71.7574	-29.1978	-34.7781	71.5938	-52.8579	-51.552	57.9351	-82.8272	-60.3456	93.6947	-36.4399	-20.7132	89.587	-61.0014	-40.0193	72.9836	-81.4565	-52.3228	91.6901	-1.64119	21.2788	96.4415	0.545622	52.2847	60.1781	4.79253	44.8622	
267	2.225	32.6197	-24.9844	61.3056	11.5515	-42.3541	37.3552	-2.16326	-57.9289	9.21134	-7.24362	-71.6364	-12.5996	24.4128	-11.8769	-20.8276	20.5708	-27.8177	-46.3391	14.8238	-53.8259	-68.3913	50.8034	-12.7264	-35.0961	46.6867	-28.8798	-63.8807	40.4932	-47.1892	-87.8472	73.6737	-31.8949	-33.8244	65.653	-55.181	-51.1981	54.7626	-84.7503	-61.4133	93.603	-40.0465	-19.8548	89.0375	-61.7613	-37.6088	74.9986	-84.4782	-51.8821	91.4875	-4.13573	20.5584	97.432	0.167796	54.6884	58.2863	3.72273	43.5459	
268	2.23333	30.2726	-25.9133	64.8177	8.02061	-45.2809	39.5595	-1.99761	-60.4592	14.2542	-9.58123	-73.4232	-12.1365	28.3668	-14.7749	-23.7817	16.2886	-31.4324	-45.4325	12.6115	-53.4764	-63.7839	53.6218	-15.3134	-33.4341	44.8111	-29.2525	-59.6694	42.8413	-52.1797	-88.4042	72.7892	-34.0139	-32.892	65.7081	-56.8713	-49.9866	55.4997	-83.5813	-59.6702	96.3658	-43.1982	-19.3006	86.8725	-65.9398	-38.6599	78.9806	-86.5967	-52.1803	90.4492	-7.06666	22.8223	100.198	-5.25739	58.5938	58.9799	1.62792	50.884	
269	2.24167	33.6452	-29.1648	63.0077	11.8861	-46.473	41.6536	-2.39022	-63.1601	14.4061	-7.34525	-76.007	-8.43477	25.7433	-15.9397	-17.9498	19.7762	-33.4392	-44.5697	16.8718	-53.9491	-61.3458	51.6307	-15.4552	-28.314	48.0315	-32.4534	-61.1088	43.3746	-53.7686	-86.3611	76.551	-34.2977	-27.9125	68.6626	-55.9835	-46.482	58.1906	-82.8528	-57.4026	98.4403	-45.9243	-18.2557	88.6541	-67.4131	-34.9755	79.9824	-88.4417	-48.4252	91.1801	-7.14114	25.5	98.0537	-4.00488	57.9594	58.7331	0.607742	51.0227	
270	2.25	28.8661	-29.3692	65.9288	9.5009	-49.0237	45.8116	0.464136	-64.1868	18.3192	-3.14173	-76.8429	-6.32572	29.2684	-17.0549	-17.4364	21.5227	-34.7042	-42.9952	17.0322	-55.014	-60.1519	51.1602	-16.1517	-27.897	47.9693	-31.7723	-56.9845	38.4211	-54.0717	-84.056	75.3923	-36.6127	-27.6955	66.7478	-60.4312	-47.1343	57.6056	-87.8124	-58.0412	98.0359	-44.8628	-15.3993	91.0829	-67.2691	-31.901	77.1053	-86.8137	-45.0564	90.9766	-9.67238	31.2418	96.4064	-3.92851	64.1652	60.8789	0.632343	54.843	
